Coordinates
version=1
nRows=17
nColumns=40
inDegrees=yes

Units are S.I. units (second, meters, Newtons, ...)
Angles are in degrees.

endheader
time	pelvis_tilt	pelvis_list	pelvis_rotation	pelvis_tx	pelvis_ty	pelvis_tz	hip_flexion_r	hip_adduction_r	hip_rotation_r	knee_angle_r	knee_angle_r_beta	ankle_angle_r	subtalar_angle_r	mtp_angle_r	hip_flexion_l	hip_adduction_l	hip_rotation_l	knee_angle_l	knee_angle_l_beta	ankle_angle_l	subtalar_angle_l	mtp_angle_l	lumbar_extension	lumbar_bending	lumbar_rotation	arm_flex_r	arm_add_r	arm_rot_r	elbow_flex_r	pro_sup_r	wrist_flex_r	wrist_dev_r	arm_flex_l	arm_add_l	arm_rot_l	elbow_flex_l	pro_sup_l	wrist_flex_l	wrist_dev_l
     25.27500000	     -4.19821065	     -5.56725415	      5.57651076	      1.06850965	      0.92030311	      0.45864160	      5.79947147	      0.61177060	    -13.38170071	     28.54561818	     28.54561818	     15.57797223	     -8.91522865	     -7.14354513	     27.88362063	     -6.81113891	     -0.99602664	     25.69127723	     25.69127723	      5.57491351	    -14.61007730	      1.95464762	     -8.74298818	      1.51485874	      4.19488322	     22.21936622	    -13.65477356	     15.01235370	     78.82001761	     44.62295870	      0.00000000	      0.00000000	      2.94241000	    -11.23061218	    -12.02513499	     32.58949867	     46.08450445	      0.00000000	      0.00000000
     25.28828571	     -4.04121788	     -5.50308266	      5.30972878	      1.06830308	      0.92124993	      0.45652041	      7.39031874	     -0.08431390	    -13.05501598	     32.35181714	     32.35181714	     14.51105382	    -10.15760696	     -7.73934365	     27.23472626	     -6.82800559	     -1.50844075	     25.65627117	     25.65627117	      6.07357580	    -14.31643284	      1.56447287	     -9.12783455	      1.17507598	      3.98600860	     21.41352350	    -13.80668847	     15.26670594	     78.41454276	     44.62806726	      0.00000000	      0.00000000	      3.39925268	    -11.52879792	    -12.06097065	     32.83707432	     46.09733410	      0.00000000	      0.00000000
     25.30157143	     -4.16278277	     -5.33924211	      4.92917717	      1.06783277	      0.92163157	      0.45459191	      9.60403688	     -0.88938976	    -12.37014750	     36.62736987	     36.62736987	     13.19174882	    -11.72069356	     -8.42249554	     26.83598687	     -6.78052257	     -2.23304723	     25.56307864	     25.56307864	      6.52910617	    -13.79571028	      1.00317357	     -9.06674135	      0.64264120	      3.80338290	     20.45703524	    -14.04933052	     15.60447579	     77.92250856	     44.63363527	      0.00000000	      0.00000000	      3.79450961	    -11.89756117	    -12.09991990	     33.12518534	     46.10981232	      0.00000000	      0.00000000
     25.31485714	     -4.14612943	     -5.28550989	      4.62347056	      1.06730640	      0.92215891	      0.45267443	     11.60494874	     -1.48082237	    -11.72018205	     40.52947867	     40.52947867	     10.87825958	    -13.78677653	    -10.60584148	     26.30610957	     -6.90004821	     -3.12067464	     25.40255692	     25.40255692	      6.46860081	    -13.15656457	     -0.90956519	     -9.19111543	      0.34808964	      3.34462987	     19.73035050	    -14.34323192	     16.52713812	     77.13430110	     44.67624633	      0.00000000	      0.00000000	      3.89104001	    -12.35178232	    -11.78289967	     33.85945432	     46.07734763	      0.00000000	      0.00000000
     25.32814286	     -4.04679851	     -5.10438764	      4.37423862	      1.06662015	      0.92278483	      0.45056603	     13.62140768	     -2.31660260	    -11.28976166	     44.59959848	     44.59959848	      9.39794153	    -14.68012225	    -10.59223387	     25.69631714	     -6.78310637	     -3.74938516	     25.29992060	     25.29992060	      6.89223490	    -12.71016744	     -1.25708829	     -9.45366414	     -0.08144978	      2.92684301	     18.76821288	    -14.54477079	     16.67055017	     76.67286601	     44.68660332	      0.00000000	      0.00000000	      4.38707487	    -12.71947801	    -11.80439759	     34.02930467	     46.08932042	      0.00000000	      0.00000000
     25.34142857	     -3.89311445	     -4.96146368	      4.19051965	      1.06586762	      0.92344962	      0.44838317	     15.54882673	     -3.08709715	    -10.90006284	     48.41227692	     48.41227692	      7.91859241	    -15.40076878	    -10.36084084	     25.06849774	     -6.68022608	     -4.29118446	     25.23343542	     25.23343542	      7.31669183	    -12.23283289	     -1.63553753	     -9.77950191	     -0.39753313	      2.41098909	     17.76251892	    -14.78947324	     16.78175013	     76.16134142	     44.69830216	      0.00000000	      0.00000000	      4.91061193	    -13.07211875	    -11.80874069	     34.17540777	     46.09919844	      0.00000000	      0.00000000
     25.35471429	     -3.88289033	     -4.86656652	      3.96573260	      1.06504027	      0.92395171	      0.44636263	     17.63861808	     -3.73513275	    -10.38496226	     51.98750743	     51.98750743	      6.67380942	    -15.92857562	     -9.51476766	     24.58419970	     -6.66756941	     -5.02074173	     25.11947945	     25.11947945	      7.67047787	    -11.52033150	     -2.13481143	     -9.86686100	     -0.65868718	      2.02214661	     16.61516077	    -15.05815808	     16.82625771	     75.42570328	     44.72122301	      0.00000000	      0.00000000	      5.42535419	    -13.40276733	    -11.74120727	     34.21455435	     46.10023291	      0.00000000	      0.00000000
     25.36800000	     -3.71192183	     -4.79650417	      3.82666817	      1.06419935	      0.92471457	      0.44412651	     19.41913679	     -4.35423562	     -9.98577354	     55.08457082	     55.08457082	      5.54645596	    -16.19326852	     -8.75326839	     23.96677632	     -6.60646528	     -5.49596893	     25.04880639	     25.04880639	      8.01078287	    -11.06744817	     -2.48529599	    -10.16523004	     -0.77468870	      1.46877522	     15.51337632	    -15.33548070	     16.79563668	     74.73531486	     44.74362670	      0.00000000	      0.00000000	      5.99327416	    -13.74755604	    -11.67754726	     34.22613199	     46.10230351	      0.00000000	      0.00000000
     25.38128571	     -3.58449628	     -4.91086609	      3.68072978	      1.06343599	      0.92548715	      0.44222430	     21.28820907	     -4.63711973	     -9.49828413	     58.04137280	     58.04137280	      6.16498412	    -15.50184842	     -3.42387022	     23.42113559	     -6.83592898	     -6.17473286	     24.99793099	     24.99793099	      8.37727742	    -10.07110105	     -3.44870932	    -10.33775882	     -0.74663437	      1.41034000	     14.22810097	    -15.29879171	     15.48618241	     72.78185923	     44.86835014	      0.00000000	      0.00000000	      7.26174745	    -13.96648864	    -10.80053492	     33.03659860	     46.01701721	      0.00000000	      0.00000000
     25.39457143	     -3.43216780	     -4.90070239	      3.61439965	      1.06264402	      0.92640827	      0.44001305	     22.83991866	     -5.13698688	     -9.19386519	     60.14593976	     60.14593976	      5.31487048	    -15.53166623	     -3.16395792	     22.78944603	     -6.72051636	     -6.28337074	     24.80987561	     24.80987561	      8.63885678	    -10.03787464	     -3.49098027	    -10.58823035	     -0.77322407	      0.68856965	     13.00138633	    -15.64137442	     15.44640638	     72.30034547	     44.88227663	      0.00000000	      0.00000000	      7.73548336	    -14.30446972	    -10.75612905	     33.09192153	     46.02086061	      0.00000000	      0.00000000
     25.40785714	     -3.33618202	     -4.98039797	      3.47659101	      1.06191175	      0.92735799	      0.43796557	     24.33105886	     -5.46386375	     -8.85965420	     61.71961546	     61.71961546	      4.70442318	    -15.44971153	     -2.73717112	     22.17976159	     -6.71033926	     -6.40536539	     24.56086740	     24.56086740	      8.92826280	     -9.98750419	     -3.54186094	    -10.74117693	     -0.65341232	      0.26286758	     11.72190094	    -16.00662144	     15.22574371	     71.41229217	     44.91622380	      0.00000000	      0.00000000	      8.35316901	    -14.50657571	    -10.63479505	     33.08531503	     46.01671571	      0.00000000	      0.00000000
     25.42114286	     -3.18658126	     -5.18753618	      3.35381608	      1.06122414	      0.92856244	      0.43611551	     25.64803549	     -5.57120835	     -8.56268221	     62.81215763	     62.81215763	      4.84331532	    -14.98511167	     -0.57282932	     21.50073512	     -6.82160175	     -6.39497123	     24.25270488	     24.25270488	      9.15823325	    -10.05903989	     -3.63560446	    -10.90699523	     -0.39808520	      0.44729866	     10.29259010	    -15.72071282	     12.90501476	     68.83516687	     45.08789066	      0.00000000	      0.00000000	      9.86720289	    -14.53491824	     -9.61872272	     31.68712095	     45.91964369	      0.00000000	      0.00000000
     25.43442857	     -3.10629680	     -5.37301165	      3.18608333	      1.06055981	      0.92965487	      0.43444791	     26.90726779	     -5.63506801	     -8.23868092	     63.34719067	     63.34719067	      4.71349998	    -14.70843245	      0.51117226	     20.88415689	     -6.93365426	     -6.46343101	     23.93960713	     23.93960713	      9.33198050	    -10.11072353	     -3.72730696	    -11.03222854	     -0.13103631	      0.44320906	      8.78287832	    -15.68401460	     10.98569766	     67.59759815	     45.19742928	      0.00000000	      0.00000000	     10.98623051	    -14.68716231	     -8.58095819	     30.84842153	     45.81908360	      0.00000000	      0.00000000
     25.44771429	     -3.00070042	     -5.58527536	      2.98487966	      1.06000113	      0.93089404	      0.43291686	     27.90644615	     -5.60351923	     -7.96056117	     63.18934488	     63.18934488	      4.29959628	    -14.64608605	      0.67496103	     20.20652890	     -7.07735614	     -6.52070409	     23.58854062	     23.58854062	      9.54209883	    -10.13164470	     -3.72692360	    -11.17683038	      0.16255278	      0.33647617	      7.45722574	    -16.05378024	     10.56715622	     66.29564566	     45.25101638	      0.00000000	      0.00000000	     11.68621637	    -14.74747916	     -8.33969440	     30.97229849	     45.80409028	      0.00000000	      0.00000000
     25.46100000	     -2.92783923	     -5.85690827	      2.77292312	      1.05946064	      0.93208471	      0.43166563	     28.77896249	     -5.45143578	     -7.75601820	     62.48891513	     62.48891513	      3.84083232	    -14.57219540	      0.65257900	     19.54296063	     -7.28732568	     -6.53368115	     23.18516157	     23.18516157	      9.66818492	    -10.27635892	     -3.89692540	    -11.26944934	      0.47713488	      0.45041265	      6.21294384	    -15.52320480	      7.82288743	     63.84834972	     45.42004829	      0.00000000	      0.00000000	     12.74242652	    -14.93980663	     -6.80293364	     30.25302975	     45.65806968	      0.00000000	      0.00000000
     25.47428571	     -2.90817712	     -6.08413110	      2.53243251	      1.05887635	      0.93304524	      0.43052305	     29.56524382	     -5.33216400	     -7.60862208	     61.32401256	     61.32401256	      3.51444878	    -14.34477878	      0.84143931	     19.02192569	     -7.48370454	     -6.64077520	     22.96036287	     22.96036287	      9.88572535	    -10.35107583	     -3.90296249	    -11.35636396	      0.78896519	      0.02516676	      5.08103949	    -15.85312840	      7.75466646	     63.11164499	     45.44191409	      0.00000000	      0.00000000	     13.07147162	    -15.24125347	     -6.80129374	     30.39920093	     45.66600919	      0.00000000	      0.00000000
     25.48757143	     -2.80592695	     -6.33667863	      2.22722582	      1.05836560	      0.93424511	      0.42964565	     30.05977604	     -5.05155090	     -7.41696540	     59.56679363	     59.56679363	      2.85469066	    -14.43181047	      0.58358645	     18.24995707	     -7.72217855	     -6.79402387	     22.45748326	     22.45748326	      9.97389461	    -10.37783175	     -4.07734317	    -11.45718272	      1.08175327	      0.30310916	      4.63562159	    -15.23674494	      5.42049130	     58.71592241	     45.66835528	      0.00000000	      0.00000000	     13.95597922	    -15.17731171	     -5.89007993	     30.45959602	     45.58455957	      0.00000000	      0.00000000
